<svg xmlns="http://www.w3.org/2000/svg" fill="none" class="icon icon-phone" viewBox="0 0 18 18"><path fill="currentColor" fill-rule="evenodd" d="M3.62 1.5c-.39 0-.75.15-1.02.42l-.02.02-.68.68a1.5 1.5 0 0 0-.07 2.05l.02.03 2.98 3.57a1.5 1.5 0 0 0 1.82.35l.58-.29a.5.5 0 0 1 .58.1l3.5 3.5a.5.5 0 0 1 .1.58l-.29.58a1.5 1.5 0 0 0 .35 1.82l3.57 2.98.03.02a1.5 1.5 0 0 0 2.05-.07l.68-.68.02-.02c.27-.27.42-.63.42-1.02 0-.39-.15-.75-.42-1.02l-.02-.02-2.98-3.57a1.5 1.5 0 0 0-1.82-.35l-.58.29a.5.5 0 0 1-.58-.1l-3.5-3.5a.5.5 0 0 1-.1-.58l.29-.58a1.5 1.5 0 0 0-.35-1.82L4.66 1.52l-.02-.02A1.44 1.44 0 0 0 3.62 1.5m-1.73-.6A2.44 2.44 0 0 1 3.62.5c.66 0 1.29.26 1.73.72l.02.02 2.98 3.57.02.03c.44.53.54 1.26.26 1.88l-.2.4 3.2 3.2.4-.2a1.88 1.88 0 0 1 1.88.26l.03.02 3.57 2.98.02.02c.46.44.72 1.07.72 1.73 0 .66-.26 1.29-.72 1.73l-.02.02-.68.68-.02.02a2.44 2.44 0 0 1-1.73.72c-.66 0-1.29-.26-1.73-.72l-.02-.02-2.98-3.57-.02-.03a1.88 1.88 0 0 1-.26-1.88l.2-.4-3.2-3.2-.4.2a1.88 1.88 0 0 1-1.88-.26l-.03-.02-3.57-2.98-.02-.02A2.44 2.44 0 0 1 .5 3.62c0-.66.26-1.29.72-1.73l.02-.02.68-.68.02-.02Z" clip-rule="evenodd"/></svg>
